# xmcd
#
# Track frame offsets: 
#        150
#        14475
#        26737
#        50357
#        62142
#        76807
#        89660
#        105902
#        123127
#        132972
#        145502
#        194177
#        207015
#        227187
#        241657
#
# Disc length: 3804 seconds
#
# Revision: 12
# Processed by: cddbd v1.5.2PL0 Copyright (c) Steve Scherf et al.
# Submitted via: ExactAudioCopy v0.99pb5
#
DISCID=c50eda0f
DTITLE=Spirit - Spirit  
DYEAR=1968
DGENRE=Rock
TTITLE0=Fresh-Garbage
TTITLE1=Uncle Jack
TTITLE2=Mechanical World
TTITLE3=Taurus
TTITLE4=Girl In Your Eye
TTITLE5=Straight Arrow
TTITLE6=Topanga Windows
TTITLE7=Gramophone Man
TTITLE8=Water Woman
TTITLE9=The Great Canyon Fire In General
TTITLE10=Elijah
TTITLE11=Veruska [Bonus]
TTITLE12=Free Spirit [Bonus]
TTITLE13=If I Had A Woman [Bonus]
TTITLE14=Elijah  (Alt. Take 2) [Bonus]
EXTD=
EXTT0=
EXTT1=
EXTT2=
EXTT3=
EXTT4=
EXTT5=
EXTT6=
EXTT7=
EXTT8=
EXTT9=
EXTT10=
EXTT11=
EXTT12=
EXTT13=
EXTT14=
PLAYORDER=
